<?xml version="1.0" encoding="utf-8"?>
<!-- Generator: Adobe Illustrator 19.0.0, SVG Export Plug-In . SVG Version: 6.00 Build 0)  -->
<svg version="1.1" id="Calque_1" xmlns="http://www.w3.org/2000/svg" xmlns:xlink="http://www.w3.org/1999/xlink" x="0px" y="0px"
	 viewBox="586 -324.1 1221.1 715" style="enable-background:new 586 -324.1 1221.1 715;" xml:space="preserve">
<style type="text/css">
	.st0{fill:#9FD8F7;}
	.st1{fill:#71C8EF;}
	.st2{fill:#17A1DE;}
	.st3{fill:#0582C7;}
	.st4{fill:#0D6CB1;}
	.st5{fill:#09529B;}
	.st6{fill:#0B4284;}
	.st7{fill:#094F98;}
	.st8{fill:#FFFFFF;}
</style>
<g>
	<path class="st0" d="M1176.9-294.5h35.6l23.1,1.9l17.5,2.5l15,3.1l14.4,3.8l27.5,9.4l0.6,1.3H1080l0.6-1.9l26.9-8.8l16.9-4.4
		l15-3.1l18.8-2.5L1176.9-294.5z"/>
	<path class="st1" d="M1025.8-245.8h341.9l6.3,3.1l12.5,8.8l11.3,8.8l6.9,5.6l8.1,6.9l6.9,5.6l5.6,5v1.3l-1.9,0.6h-450l-7.5-0.6
		l1.3-2.5l5-5l8.8-6.9l10.6-8.8l8.8-6.9l11.3-8.1l8.8-5.6L1025.8-245.8z"/>
	<path class="st2" d="M940.8-173.9h510l5,6.3l6.9,10l6.3,8.8l3.1,5v1.3h1.3v1.3H917.5l0.6-3.1l1.9-0.6l1.3-3.1l4.4-5.6h1.3l1.3-3.1
		l0.6-1.3h1.3l1.3-3.1l6.3-8.8L940.8-173.9z"/>
	<path class="st3" d="M1483.8-114.5h3.8l3.1,3.8l6.9,15l3.1,7.5v1.3l-570,0.6l-40.6-0.6l1.3-3.1l7.5-17.5l3.8-6.3L1483.8-114.5z"/>
	<path class="st4" d="M1505.8-64.5l3.1,0.6l4.4,14.4l1.9,8.8l-0.6,0.6l-592,0.6h-43.1l-4.5-0.6l0.6-2.5l6.9-21.3L1505.8-64.5z"/>
	<path class="st5" d="M781.9-18.2h840l8.1,0.6v15l-0.6,0.6H768.3v-15.6L781.9-18.2z"/>
	<path class="st6" d="M771.3,153.6h855.6l3.8,1.3l0.6,3.1l-1.3,7.5l-1.3,1.3l-268.8,1.3l-483-0.7l-107.5-0.6l-1.3-1.3v-8.1l0.6-3.1
		L771.3,153.6z"/>
	<path class="st7" d="M1310.8,189.9h54.4l118.1,0.6l-4.4,8.1l-13.9,21.3l-8.8,11.3l-5,6.9l-5.6,6.9l-9.4,10l-7.5,7.5l-4.4,5l-10,9.4
		l-8.8,8.1l-8.8,6.9l-12.5,9.4l-14.4,9.4l-12.5,7.5l-13.8,7.5l-16.3,7.5l-23.1,9.4l-15.6,5l-21.9,5.6l-26.3,5l-33.8,3.1h-25
		l-4.4-0.6l-15.6-1.3l-15.6-1.9l-28.1-5.6l-18.1-5l-18.8-6.3l-15-6.3l-12.5-5.6l-18.1-9.4l-12.5-7.5l-15-10l-9.4-6.9l-8.8-6.9
		l-8.8-7.5l-6.3-5.6l-5-4.4l-16.9-16.9l-5.6-6.9l-6.3-6.9l-8.1-10.6l-8.1-11.3l-8.1-13.1l-5.6-8.8l-1.9-2.5v-1.9l3.1-0.6l38.1-0.6
		h176.8L1310.8,189.9z"/>
	<g>
		<path class="st8" d="M640.3,98.8c-3.8,0-7.3-0.4-10.4-1.3c-3.1-0.9-5.8-2.1-8-3.9c-2.2-1.7-3.9-3.9-5.1-6.5
			c-1.2-2.6-1.8-5.6-1.8-9.1V50.7c0-0.4,0.1-0.7,0.4-1c0.3-0.3,0.6-0.4,1-0.4h11.3c0.4,0,0.7,0.1,1,0.4c0.3,0.3,0.4,0.6,0.4,1v27.2
			c0,3.6,0.9,6.4,2.7,8.2c1.8,1.8,4.6,2.7,8.6,2.7c3.9,0,6.8-0.9,8.6-2.7c1.8-1.8,2.7-4.5,2.7-8.2V50.7c0-0.4,0.1-0.7,0.4-1
			c0.3-0.3,0.6-0.4,1-0.4h11.3c0.4,0,0.7,0.1,1,0.4c0.3,0.3,0.4,0.6,0.4,1V78c0,3.5-0.6,6.5-1.8,9.1c-1.2,2.6-2.9,4.8-5.1,6.5
			c-2.2,1.7-4.9,3-8,3.9C647.5,98.3,644.1,98.8,640.3,98.8z"/>
		<path class="st8" d="M688.5,65.5v31c0,0.4-0.1,0.7-0.4,1c-0.3,0.3-0.6,0.4-1,0.4h-10.4c-0.4,0-0.7-0.1-1-0.4
			c-0.3-0.3-0.4-0.6-0.4-1V50.7c0-0.4,0.1-0.7,0.4-1c0.3-0.3,0.6-0.4,1-0.4h13c0.6,0,1.2,0.1,1.8,0.4c0.6,0.2,1,0.6,1.3,1.1l20.6,31
			v-31c0-0.4,0.1-0.7,0.4-1c0.3-0.3,0.6-0.4,1-0.4h10.4c0.4,0,0.7,0.1,1,0.4c0.3,0.3,0.4,0.6,0.4,1v45.9c0,0.4-0.1,0.7-0.4,1
			c-0.3,0.3-0.6,0.4-1,0.4h-13c-0.6,0-1.2-0.1-1.8-0.4s-1-0.6-1.3-1.1L688.5,65.5z"/>
		<path class="st8" d="M749.3,49.3c0.4,0,0.7,0.1,1,0.4c0.3,0.3,0.4,0.6,0.4,1v45.9c0,0.4-0.1,0.7-0.4,1c-0.3,0.3-0.6,0.4-1,0.4H738
			c-0.4,0-0.7-0.1-1-0.4c-0.3-0.3-0.4-0.6-0.4-1V50.7c0-0.4,0.1-0.7,0.4-1c0.3-0.3,0.6-0.4,1-0.4H749.3z"/>
		<path class="st8" d="M778.3,97.9c-0.6,0-1-0.1-1.4-0.4c-0.4-0.3-0.7-0.7-0.9-1.1l-18.2-45.2c-0.2-0.5-0.2-1,0.1-1.3
			c0.3-0.4,0.6-0.6,1.2-0.6h11.5c0.5,0,0.9,0.1,1.3,0.4c0.3,0.3,0.6,0.6,0.7,1L785.8,88l13.3-37.2c0.2-0.4,0.4-0.8,0.7-1
			c0.3-0.3,0.7-0.4,1.3-0.4h11.5c0.5,0,0.9,0.2,1.2,0.6c0.3,0.4,0.3,0.8,0.1,1.3l-18.2,45.2c-0.2,0.5-0.5,0.8-0.9,1.1
			c-0.4,0.3-0.9,0.4-1.4,0.4H778.3z"/>
		<path class="st8" d="M834.6,58.9v9.5h22.8c0.4,0,0.7,0.1,1,0.4c0.3,0.3,0.4,0.6,0.4,1v6.8c0,0.4-0.1,0.7-0.4,1
			c-0.3,0.3-0.6,0.4-1,0.4h-22.8v10.4h25.1c0.4,0,0.7,0.1,1,0.4c0.3,0.3,0.4,0.6,0.4,1v6.8c0,0.4-0.1,0.7-0.4,1s-0.6,0.4-1,0.4H822
			c-0.4,0-0.7-0.1-1-0.4c-0.3-0.3-0.4-0.6-0.4-1V50.7c0-0.4,0.1-0.7,0.4-1c0.3-0.3,0.6-0.4,1-0.4h37.2c0.4,0,0.7,0.1,1,0.4
			c0.3,0.3,0.4,0.6,0.4,1v6.8c0,0.4-0.1,0.7-0.4,1c-0.3,0.3-0.6,0.4-1,0.4H834.6z"/>
		<path class="st8" d="M916.6,95.7c0.2,0.2,0.3,0.5,0.3,0.7c0,0.3,0,0.5-0.1,0.7c-0.1,0.2-0.3,0.4-0.5,0.5c-0.2,0.1-0.5,0.2-0.8,0.2
			h-11c-0.6,0-1.2-0.1-1.7-0.3c-0.5-0.2-0.9-0.5-1.2-1L889.9,80h-7.1v16.5c0,0.4-0.1,0.7-0.4,1c-0.3,0.3-0.6,0.4-1,0.4h-11.3
			c-0.4,0-0.7-0.1-1-0.4c-0.3-0.3-0.4-0.6-0.4-1V50.7c0-0.4,0.1-0.7,0.4-1c0.3-0.3,0.6-0.4,1-0.4h20.4c3.4,0,6.5,0.3,9.3,0.9
			c2.8,0.6,5.2,1.6,7.2,2.8c2,1.3,3.6,2.9,4.7,4.8c1.1,1.9,1.7,4.2,1.7,6.8c0,1.7-0.2,3.2-0.7,4.6c-0.5,1.4-1.2,2.7-2,3.8
			c-0.9,1.1-2,2.1-3.2,2.9c-1.3,0.8-2.7,1.6-4.3,2.1L916.6,95.7z M889.6,70.9c3.1,0,5.4-0.5,7.2-1.5c1.7-1,2.6-2.6,2.6-4.8
			c0-2.2-0.9-3.8-2.6-4.8c-1.7-1-4.1-1.5-7.2-1.5h-6.8v12.5H889.6z"/>
		<path class="st8" d="M924.1,86.2c2.3,0.9,4.7,1.5,7.3,1.9c2.5,0.4,5.2,0.6,8,0.6c1.9,0,3.4-0.1,4.7-0.3c1.2-0.2,2.2-0.5,2.9-0.8
			s1.2-0.8,1.5-1.3c0.3-0.5,0.5-1.1,0.5-1.8c0-0.6-0.2-1.2-0.5-1.8s-1-1-1.9-1.5c-0.9-0.5-2.1-1-3.7-1.5c-1.6-0.5-3.5-1.1-5.9-1.8
			c-2.7-0.7-5.1-1.6-7.1-2.5c-2-1-3.6-2.1-4.9-3.3c-1.3-1.2-2.2-2.6-2.8-4.2c-0.6-1.5-0.9-3.3-0.9-5.2c0-4.7,1.8-8.2,5.3-10.7
			c3.6-2.5,9-3.7,16.4-3.7c2.8,0,5.5,0.2,8.1,0.5c2.6,0.3,5.1,0.8,7.5,1.4c0.5,0.1,0.8,0.3,1.1,0.7c0.3,0.3,0.4,0.8,0.3,1.3
			l-0.6,6.8c0,0.5-0.2,0.8-0.6,1c-0.3,0.2-0.7,0.3-1.2,0.1c-1.9-0.6-3.9-1-6.2-1.3s-4.5-0.4-6.8-0.4c-1.9,0-3.4,0.1-4.6,0.2
			c-1.2,0.2-2.1,0.4-2.8,0.7c-0.7,0.3-1.2,0.7-1.4,1.2c-0.3,0.5-0.4,1-0.4,1.6c0,0.6,0.2,1.2,0.5,1.7c0.3,0.5,0.9,1,1.8,1.5
			c0.9,0.5,2,1,3.5,1.5c1.5,0.5,3.4,1.1,5.6,1.8c2.9,0.8,5.3,1.7,7.4,2.7c2.1,1,3.7,2.1,5,3.3s2.3,2.6,2.9,4.1
			c0.6,1.5,0.9,3.3,0.9,5.2c0,2.4-0.4,4.5-1.3,6.4c-0.9,1.8-2.2,3.4-4,4.6c-1.8,1.2-4.2,2.2-7.1,2.8c-2.9,0.6-6.4,1-10.5,1
			c-1.6,0-3,0-4.5-0.1c-1.4-0.1-2.9-0.2-4.2-0.4c-1.4-0.2-2.8-0.4-4.1-0.7c-1.4-0.3-2.7-0.6-4.1-1.1c-0.5-0.2-0.9-0.4-1.2-0.8
			c-0.3-0.4-0.4-0.8-0.3-1.3l0.7-7c0-0.5,0.2-0.8,0.6-1.1C923.3,86.1,923.7,86.1,924.1,86.2z"/>
		<path class="st8" d="M997.1,97.9c-0.4,0-0.7-0.1-1-0.4c-0.3-0.3-0.4-0.6-0.4-1V50.7c0-0.4,0.1-0.7,0.4-1c0.3-0.3,0.6-0.4,1-0.4
			h18.2c4.6,0,8.7,0.5,12.4,1.5c3.7,1,6.9,2.5,9.5,4.6c2.6,2,4.7,4.6,6.1,7.6c1.4,3,2.1,6.6,2.1,10.6c0,4.1-0.7,7.6-2.1,10.6
			c-1.4,3-3.5,5.6-6.1,7.6c-2.6,2-5.8,3.6-9.5,4.6c-3.7,1-7.9,1.5-12.4,1.5H997.1z M1031.3,73.6c0-2.7-0.3-5-1-6.8
			c-0.7-1.9-1.7-3.4-3.1-4.6c-1.4-1.2-3.1-2-5.2-2.5c-2.1-0.5-4.5-0.8-7.2-0.8h-5v29.5h5c2.7,0,5.1-0.3,7.2-0.8s3.8-1.4,5.2-2.5
			c1.4-1.2,2.4-2.7,3.1-4.6C1031,78.6,1031.3,76.3,1031.3,73.6z"/>
		<path class="st8" d="M1065.6,88l-3.2,8.9c-0.2,0.7-0.8,1-1.6,1h-11.7c-0.5,0-0.9-0.2-1.2-0.6c-0.3-0.4-0.3-0.8-0.1-1.3l18.5-45.9
			c0.1-0.3,0.3-0.5,0.5-0.6s0.5-0.2,0.8-0.2h16.6c0.3,0,0.5,0.1,0.8,0.2c0.3,0.2,0.4,0.4,0.5,0.6l18.5,45.9c0.2,0.5,0.2,1-0.1,1.3
			c-0.3,0.4-0.6,0.6-1.2,0.6h-11.7c-0.8,0-1.4-0.3-1.6-1l-3.2-8.9H1065.6z M1082.6,78l-6.7-18.8l-6.7,18.8H1082.6z"/>
		<path class="st8" d="M1118.3,59.2h-14.9c-0.4,0-0.7-0.1-1-0.4c-0.3-0.3-0.4-0.6-0.4-1v-7.2c0-0.4,0.1-0.7,0.4-1s0.6-0.4,1-0.4
			h43.8c0.4,0,0.7,0.1,1,0.4c0.3,0.3,0.4,0.6,0.4,1v7.2c0,0.4-0.1,0.7-0.4,1c-0.3,0.3-0.6,0.4-1,0.4h-14.9v37.3c0,0.4-0.1,0.7-0.4,1
			c-0.3,0.3-0.6,0.4-1,0.4h-11.3c-0.4,0-0.7-0.1-1-0.4c-0.3-0.3-0.4-0.6-0.4-1V59.2z"/>
		<path class="st8" d="M1164.6,88l-3.2,8.9c-0.2,0.7-0.8,1-1.6,1h-11.7c-0.5,0-0.9-0.2-1.2-0.6c-0.3-0.4-0.3-0.8-0.1-1.3l18.5-45.9
			c0.1-0.3,0.3-0.5,0.5-0.6s0.5-0.2,0.8-0.2h16.6c0.3,0,0.5,0.1,0.8,0.2c0.3,0.2,0.4,0.4,0.5,0.6l18.5,45.9c0.2,0.5,0.2,1-0.1,1.3
			c-0.3,0.4-0.6,0.6-1.2,0.6h-11.7c-0.8,0-1.4-0.3-1.6-1l-3.2-8.9H1164.6z M1181.6,78l-6.7-18.8l-6.7,18.8H1181.6z"/>
		<path class="st8" d="M1245.8,59.2H1231c-0.4,0-0.7-0.1-1-0.4c-0.3-0.3-0.4-0.6-0.4-1v-7.2c0-0.4,0.1-0.7,0.4-1s0.6-0.4,1-0.4h43.8
			c0.4,0,0.7,0.1,1,0.4c0.3,0.3,0.4,0.6,0.4,1v7.2c0,0.4-0.1,0.7-0.4,1c-0.3,0.3-0.6,0.4-1,0.4h-14.9v37.3c0,0.4-0.1,0.7-0.4,1
			s-0.6,0.4-1,0.4h-11.3c-0.4,0-0.7-0.1-1-0.4c-0.3-0.3-0.4-0.6-0.4-1V59.2z"/>
		<path class="st8" d="M1295.8,58.9v9.5h22.8c0.4,0,0.7,0.1,1,0.4s0.4,0.6,0.4,1v6.8c0,0.4-0.1,0.7-0.4,1c-0.3,0.3-0.6,0.4-1,0.4
			h-22.8v10.4h25.1c0.4,0,0.7,0.1,1,0.4c0.3,0.3,0.4,0.6,0.4,1v6.8c0,0.4-0.1,0.7-0.4,1s-0.6,0.4-1,0.4h-37.8c-0.4,0-0.7-0.1-1-0.4
			c-0.3-0.3-0.4-0.6-0.4-1V50.7c0-0.4,0.1-0.7,0.4-1c0.3-0.3,0.6-0.4,1-0.4h37.2c0.4,0,0.7,0.1,1,0.4c0.3,0.3,0.4,0.6,0.4,1v6.8
			c0,0.4-0.1,0.7-0.4,1c-0.3,0.3-0.6,0.4-1,0.4H1295.8z"/>
		<path class="st8" d="M1373.2,96.7c-2.2,0.7-4.5,1.2-7.1,1.5c-2.6,0.3-5.2,0.5-7.9,0.5c-4.9,0-9.2-0.6-13-1.7c-3.8-1.2-7-2.8-9.6-5
			c-2.6-2.2-4.6-4.8-6-7.9s-2.1-6.6-2.1-10.5c0-3.9,0.7-7.4,2.1-10.5c1.4-3.1,3.4-5.7,6-7.9c2.6-2.2,5.8-3.8,9.6-5
			c3.8-1.2,8.1-1.7,12.9-1.7c2.7,0,5.4,0.2,7.9,0.5c2.5,0.3,4.8,0.9,6.9,1.5c0.3,0.1,0.5,0.3,0.7,0.5c0.2,0.3,0.3,0.6,0.3,0.9
			l-0.7,7.1c0,0.5-0.3,0.9-0.6,1.1c-0.4,0.2-0.8,0.3-1.2,0.1c-1.6-0.6-3.3-1-5.1-1.3c-1.8-0.3-3.8-0.4-5.8-0.4
			c-6.2,0-10.8,1.3-13.8,3.9s-4.6,6.4-4.6,11.2c0,5,1.6,8.8,4.7,11.3c3.2,2.5,7.8,3.8,13.9,3.8c2,0,3.9-0.1,5.7-0.4
			c1.8-0.3,3.6-0.7,5.3-1.3c0.5-0.2,0.9-0.1,1.2,0.1c0.4,0.2,0.6,0.6,0.6,1.1l0.7,7.1c0,0.3,0,0.6-0.2,0.9
			C1373.8,96.5,1373.5,96.7,1373.2,96.7z"/>
		<path class="st8" d="M1381.4,50.7c0-0.4,0.1-0.7,0.4-1c0.3-0.3,0.6-0.4,1-0.4h11.3c0.4,0,0.7,0.1,1,0.4s0.4,0.6,0.4,1v16.5h21.8
			V50.7c0-0.4,0.1-0.7,0.4-1s0.6-0.4,1-0.4h11.3c0.4,0,0.7,0.1,1,0.4c0.3,0.3,0.4,0.6,0.4,1v45.9c0,0.4-0.1,0.7-0.4,1
			c-0.3,0.3-0.6,0.4-1,0.4h-11.3c-0.4,0-0.7-0.1-1-0.4s-0.4-0.6-0.4-1V77.1h-21.8v19.5c0,0.4-0.1,0.7-0.4,1s-0.6,0.4-1,0.4h-11.3
			c-0.4,0-0.7-0.1-1-0.4c-0.3-0.3-0.4-0.6-0.4-1V50.7z"/>
		<path class="st8" d="M1454.2,65.5v31c0,0.4-0.1,0.7-0.4,1c-0.3,0.3-0.6,0.4-1,0.4h-10.4c-0.4,0-0.7-0.1-1-0.4
			c-0.3-0.3-0.4-0.6-0.4-1V50.7c0-0.4,0.1-0.7,0.4-1c0.3-0.3,0.6-0.4,1-0.4h13c0.6,0,1.2,0.1,1.8,0.4c0.6,0.2,1,0.6,1.3,1.1l20.6,31
			v-31c0-0.4,0.1-0.7,0.4-1s0.6-0.4,1-0.4h10.4c0.4,0,0.7,0.1,1,0.4s0.4,0.6,0.4,1v45.9c0,0.4-0.1,0.7-0.4,1s-0.6,0.4-1,0.4h-13
			c-0.6,0-1.2-0.1-1.8-0.4c-0.6-0.2-1-0.6-1.3-1.1L1454.2,65.5z"/>
		<path class="st8" d="M1554.9,73.6c0,3.6-0.6,6.9-1.8,10c-1.2,3.1-3,5.7-5.3,8c-2.3,2.2-5.2,4-8.7,5.3c-3.4,1.3-7.4,1.9-11.9,1.9
			s-8.5-0.6-12-1.9c-3.5-1.3-6.3-3-8.7-5.3c-2.3-2.2-4.1-4.9-5.3-8c-1.2-3.1-1.8-6.4-1.8-10s0.6-6.9,1.8-10c1.2-3.1,2.9-5.7,5.3-8
			c2.3-2.2,5.2-4,8.7-5.3s7.4-1.9,12-1.9s8.5,0.6,11.9,1.9s6.3,3,8.7,5.3c2.3,2.2,4.1,4.9,5.3,8C1554.3,66.7,1554.9,70,1554.9,73.6z
			 M1513.8,73.6c0,5,1.1,8.8,3.4,11.5s5.6,4,10,4c4.4,0,7.8-1.3,10-4s3.4-6.5,3.4-11.5c0-5-1.1-8.8-3.4-11.5c-2.3-2.6-5.6-4-10-4
			c-4.4,0-7.8,1.3-10,4C1514.9,64.8,1513.8,68.6,1513.8,73.6z"/>
		<path class="st8" d="M1562.2,50.7c0-0.4,0.1-0.7,0.4-1c0.3-0.3,0.6-0.4,1-0.4h11.3c0.4,0,0.7,0.1,1,0.4s0.4,0.6,0.4,1V88h26.6
			c0.4,0,0.7,0.1,1,0.4c0.3,0.3,0.4,0.6,0.4,1v7.2c0,0.4-0.1,0.7-0.4,1s-0.6,0.4-1,0.4h-39.2c-0.4,0-0.7-0.1-1-0.4
			c-0.3-0.3-0.4-0.6-0.4-1V50.7z"/>
		<path class="st8" d="M1661.6,73.6c0,3.6-0.6,6.9-1.8,10c-1.2,3.1-3,5.7-5.3,8c-2.3,2.2-5.2,4-8.7,5.3c-3.4,1.3-7.4,1.9-11.9,1.9
			s-8.5-0.6-12-1.9c-3.5-1.3-6.3-3-8.7-5.3c-2.3-2.2-4.1-4.9-5.3-8c-1.2-3.1-1.8-6.4-1.8-10s0.6-6.9,1.8-10c1.2-3.1,2.9-5.7,5.3-8
			c2.3-2.2,5.2-4,8.7-5.3s7.4-1.9,12-1.9s8.5,0.6,11.9,1.9s6.3,3,8.7,5.3c2.3,2.2,4.1,4.9,5.3,8C1661,66.7,1661.6,70,1661.6,73.6z
			 M1620.5,73.6c0,5,1.1,8.8,3.4,11.5s5.6,4,10,4c4.4,0,7.8-1.3,10-4s3.4-6.5,3.4-11.5c0-5-1.1-8.8-3.4-11.5c-2.3-2.6-5.6-4-10-4
			c-4.4,0-7.8,1.3-10,4C1621.6,64.8,1620.5,68.6,1620.5,73.6z"/>
		<path class="st8" d="M1718.3,96.2c-2.7,0.9-5.6,1.5-8.7,2s-6.3,0.6-9.7,0.6c-5.3,0-9.9-0.6-14-1.8s-7.6-2.9-10.4-5.1
			c-2.8-2.2-5-4.8-6.5-7.9c-1.5-3.1-2.2-6.6-2.2-10.4c0-3.6,0.7-7,2.1-10.1c1.4-3.1,3.4-5.7,6.1-8c2.7-2.2,6.1-4,10.1-5.2
			c4-1.3,8.7-1.9,13.9-1.9c3.3,0,6.5,0.2,9.6,0.7s6,1.1,8.6,1.9c0.3,0.1,0.5,0.3,0.7,0.6c0.2,0.3,0.3,0.6,0.2,0.9l-0.7,7
			c0,0.5-0.2,0.8-0.5,1.1c-0.3,0.2-0.6,0.3-1,0.2c-2.1-0.7-4.4-1.3-6.9-1.7s-5-0.6-7.6-0.6c-3.3,0-6.2,0.3-8.8,1
			c-2.5,0.7-4.7,1.7-6.4,2.9c-1.7,1.3-3.1,2.9-4,4.8c-0.9,1.9-1.4,4.1-1.4,6.6c0,2.5,0.5,4.8,1.4,6.7c0.9,1.9,2.2,3.5,3.9,4.8
			s3.7,2.2,6.1,2.9c2.4,0.6,5.1,1,8,1c1.3,0,2.6-0.1,3.8-0.2s2.3-0.3,3.3-0.5v-9.7h-10.4c-0.4,0-0.7-0.1-1-0.4
			c-0.3-0.3-0.4-0.6-0.4-1v-5.8c0-0.4,0.1-0.7,0.4-1c0.3-0.3,0.6-0.4,1-0.4h21c0.4,0,0.7,0.1,1,0.4c0.3,0.3,0.4,0.6,0.4,1v23.5
			c0,0.3-0.1,0.5-0.3,0.8S1718.5,96.1,1718.3,96.2z"/>
		<path class="st8" d="M1747.4,97.9c-0.4,0-0.7-0.1-1-0.4c-0.3-0.3-0.4-0.6-0.4-1V78.9l-20.2-27.4c-0.2-0.2-0.3-0.5-0.3-0.7
			c0-0.3,0-0.5,0.1-0.7s0.3-0.4,0.5-0.6c0.2-0.1,0.5-0.2,0.8-0.2h10.7c1.3,0,2.2,0.5,2.8,1.4l12.5,17.9l12.5-17.9
			c0.6-0.9,1.6-1.4,2.9-1.4h10.7c0.3,0,0.6,0.1,0.8,0.2c0.2,0.1,0.4,0.3,0.5,0.6s0.2,0.5,0.1,0.7c0,0.3-0.1,0.5-0.3,0.7l-20.2,27.4
			v17.7c0,0.4-0.1,0.7-0.4,1s-0.6,0.4-1,0.4H1747.4z"/>
	</g>
</g>
</svg>
